<svg xmlns="http://www.w3.org/2000/svg" width="720" height="260" viewBox="0 0 720 260" role="img" aria-labelledby="title desc">
  <title id="title">KC ✦ LT monochrome handwritten signature logo</title>
  <desc id="desc">A transparent single-blue KC star LT signature for print and restrained layouts, with clearly separated initials and one unblurred four-point star.</desc>
  <g class="signature-ink" fill="none" stroke="#0a6fc2" stroke-width="14" stroke-linecap="round" stroke-linejoin="round">
    <path d="M122 40C112 99 101 161 92 208"/>
    <path d="M110 116C141 94 169 67 199 39"/>
    <path d="M111 119C139 145 166 171 198 190"/>
    <path d="M323 76C300 45 255 46 231 79C205 115 210 165 240 185C269 204 307 187 326 155"/>
    <path d="M397 42C386 98 375 151 365 187C391 190 420 183 447 169"/>
    <path d="M560 59C548 102 536 149 526 191"/>
    <path d="M477 70C530 52 592 52 649 66"/>
    <path d="M66 232C185 214 314 216 430 223C520 229 602 225 666 207"/>
  </g>
  <g class="signature-star-placement" transform="translate(348 148)"><g class="signature-star" aria-hidden="true"><path d="M0 -14L3.36 -3.92L12 0L3.36 3.92L0 14L-3.36 3.92L-12 0L-3.36 -3.92Z" fill="#0a6fc2"/></g></g>
</svg>
