<svg xmlns="http://www.w3.org/2000/svg" width="360" height="200" viewBox="0 0 360 200" role="img" aria-labelledby="title desc">
  <title id="title">KC LT compact handwritten signature mark</title>
  <desc id="desc">A clear compact blue handwritten mark with distinct K, C, L and T initials and a low underline.</desc>
  <defs>
    <linearGradient id="ink" x1="24" y1="169" x2="344" y2="28" gradientUnits="userSpaceOnUse"><stop stop-color="#155eef"/><stop offset="0.52" stop-color="#0a6fc2"/><stop offset="1" stop-color="#0b82e8"/></linearGradient>
  </defs>
  <g fill="none" stroke="url(#ink)" stroke-width="10.5" stroke-linecap="round" stroke-linejoin="round">
    <path d="M63 28C57 63 51 104 45 153"/>
    <path d="M55 84C76 68 90 51 106 34"/>
    <path d="M55 87C74 104 91 121 108 133"/>
    <path d="M165 62C153 45 129 46 116 65C103 86 105 115 121 129C137 141 156 131 166 112"/>
    <path d="M209 36C203 70 196 106 190 136C206 138 223 133 238 123"/>
    <path d="M291 49C284 77 278 106 273 139"/>
    <path d="M249 55C276 45 308 45 337 53"/>
    <path d="M28 169C92 153 157 156 216 161C265 165 311 159 344 145"/>
  </g>
</svg>
