<svg xmlns="http://www.w3.org/2000/svg" width="1280" height="640" viewBox="0 0 1280 640" role="img" aria-labelledby="title desc">
  <title id="title">NovaFit social preview</title>
  <desc id="desc">Navy, cyan and emerald project card for NovaFit v4.2.0, a local-first wellness intelligence studio built with Python and SQLite, covered by 124 tests and available in English, Spanish and Hebrew RTL.</desc>
  <defs>
    <linearGradient id="bg" x1="0" y1="0" x2="1280" y2="640" gradientUnits="userSpaceOnUse">
      <stop stop-color="#040d17"/><stop offset="0.56" stop-color="#071b2c"/><stop offset="1" stop-color="#0b343c"/>
    </linearGradient>
    <linearGradient id="accent" x1="96" y1="112" x2="1160" y2="548" gradientUnits="userSpaceOnUse">
      <stop stop-color="#22d3ee"/><stop offset="0.52" stop-color="#10b981"/><stop offset="1" stop-color="#a3e635"/>
    </linearGradient>
    <radialGradient id="halo" cx="0" cy="0" r="1" gradientTransform="translate(1018 315) rotate(90) scale(266)" gradientUnits="userSpaceOnUse">
      <stop stop-color="#064e3b" stop-opacity="0.75"/><stop offset="0.62" stop-color="#0d3b3c" stop-opacity="0.36"/><stop offset="1" stop-color="#071b2c" stop-opacity="0"/>
    </radialGradient>
    <pattern id="grid" width="48" height="48" patternUnits="userSpaceOnUse">
      <path d="M48 0H0V48" fill="none" stroke="#5eead4" stroke-opacity="0.055"/>
    </pattern>
    <filter id="glow" x="-70%" y="-70%" width="240%" height="240%">
      <feGaussianBlur stdDeviation="8" result="blur"/><feMerge><feMergeNode in="blur"/><feMergeNode in="SourceGraphic"/></feMerge>
    </filter>
  </defs>

  <rect width="1280" height="640" rx="30" fill="url(#bg)"/>
  <rect width="1280" height="640" rx="30" fill="url(#grid)"/>
  <path d="M0 550C240 484 416 601 664 522C889 451 1056 412 1280 467V640H0Z" fill="#064e3b" opacity="0.28"/>
  <rect x="34" y="34" width="1212" height="572" rx="24" fill="none" stroke="#34d399" stroke-opacity="0.24"/>
  <rect x="34" y="34" width="8" height="572" rx="4" fill="url(#accent)"/>

  <g font-family="Segoe UI, Inter, Arial, sans-serif">
    <g transform="translate(92 82)">
      <rect width="190" height="38" rx="19" fill="#0a2b32" stroke="#34d399" stroke-opacity="0.48"/>
      <circle cx="22" cy="19" r="5" fill="#a3e635" filter="url(#glow)"/>
      <text x="40" y="25" fill="#d1fae5" font-size="15" font-weight="700" letter-spacing="2">FEATURED PROJECT</text>
    </g>
    <text x="92" y="226" fill="#f7fffc" font-size="72" font-weight="760" letter-spacing="-2">NovaFit</text>
    <text x="94" y="287" fill="#a7f3d0" font-size="32" font-weight="650">v4.2 · Local-first wellness intelligence</text>
    <rect x="94" y="323" width="536" height="2" fill="url(#accent)"/>
    <text x="94" y="382" fill="#cfebed" font-size="25" font-weight="600">Private profiles, explainable analytics, multilingual UX.</text>

    <g transform="translate(94 452)">
      <rect width="210" height="50" rx="25" fill="#082834" stroke="#22d3ee" stroke-opacity="0.56"/>
      <text x="29" y="32" fill="#cffafe" font-size="18" font-weight="700">Python + SQLite</text>
      <rect x="226" width="132" height="50" rx="25" fill="#123526" stroke="#a3e635" stroke-opacity="0.56"/>
      <text x="250" y="32" fill="#ecfccb" font-size="18" font-weight="700">124 tests</text>
      <rect x="374" width="154" height="50" rx="25" fill="#0a3040" stroke="#22d3ee" stroke-opacity="0.56"/>
      <text x="398" y="32" fill="#cffafe" font-size="18" font-weight="700">12 themes</text>
    </g>
    <text x="95" y="560" fill="#72a7a5" font-size="15" letter-spacing="1.8">LIRIOTHTELTANION / NOVAFIT</text>
  </g>

  <g>
    <circle cx="1018" cy="315" r="270" fill="url(#halo)"/>
    <circle cx="1018" cy="315" r="214" fill="none" stroke="#34d399" stroke-opacity="0.25" stroke-width="2"/>
    <circle cx="1018" cy="315" r="165" fill="#071e29" fill-opacity="0.74" stroke="#22d3ee" stroke-opacity="0.26"/>
    <path d="M786 321H861L891 321L916 261L956 401L1002 190L1047 380L1080 290L1108 321H1237" fill="none" stroke="url(#accent)" stroke-width="7" stroke-linecap="round" stroke-linejoin="round" filter="url(#glow)"/>
    <circle cx="1018" cy="315" r="26" fill="#071e29" stroke="#a3e635" stroke-width="4"/>
    <path d="M1006 313L1016 323L1033 302" fill="none" stroke="#d9f99d" stroke-width="6" stroke-linecap="round" stroke-linejoin="round"/>
    <circle cx="1187" cy="204" r="6" fill="#a3e635" filter="url(#glow)"/>
    <circle cx="846" cy="446" r="5" fill="#22d3ee" filter="url(#glow)"/>
  </g>

  <g transform="translate(1027 447) scale(.52)" fill="none" stroke="url(#accent)" stroke-width="10.5" stroke-linecap="round" stroke-linejoin="round">
    <path d="M63 28C57 63 51 104 45 153"/>
    <path d="M55 84C76 68 90 51 106 34"/>
    <path d="M55 87C74 104 91 121 108 133"/>
    <path d="M165 62C153 45 129 46 116 65C103 86 105 115 121 129C137 141 156 131 166 112"/>
    <path d="M209 36C203 70 196 106 190 136C206 138 223 133 238 123"/>
    <path d="M291 49C284 77 278 106 273 139"/>
    <path d="M249 55C276 45 308 45 337 53"/>
    <path d="M28 169C92 153 157 156 216 161C265 165 311 159 344 145"/>
  </g>
</svg>
